<svg xmlns="http://www.w3.org/2000/svg" xmlns:xlink="http://www.w3.org/1999/xlink" id="svg" version="1.1" width="400" height="120.82670906200319" viewBox="0, 0, 400,120.82670906200319"><g id="svgg"><path id="path0" d="M74.902 5.237 C 74.343 5.364,73.314 5.707,72.614 5.998 C 70.698 6.796,69.374 7.027,67.417 6.905 C 65.645 6.795,64.525 6.971,61.000 7.913 C 55.487 9.387,53.237 9.144,50.718 6.804 C 48.794 5.016,49.117 6.681,51.101 8.775 C 52.658 10.419,52.660 10.417,49.075 10.417 L 46.072 10.417 44.802 11.043 C 43.084 11.890,41.130 14.000,42.063 14.000 C 42.190 14.000,42.807 13.807,43.435 13.570 C 44.896 13.021,46.351 12.903,48.479 13.164 C 51.284 13.508,51.486 14.042,49.405 15.608 C 47.623 16.950,47.898 17.158,50.360 16.333 C 52.600 15.583,52.876 15.651,52.287 16.811 C 51.690 17.986,52.468 18.087,55.583 17.242 C 59.289 16.237,62.127 14.749,65.121 12.241 C 67.385 10.345,68.159 10.648,68.164 13.432 C 68.167 15.165,68.615 16.904,69.483 18.551 C 70.272 20.049,70.303 20.370,69.802 21.798 L 69.434 22.847 70.065 24.132 C 72.212 28.497,75.516 32.047,76.651 31.206 C 77.453 30.612,77.800 27.661,77.315 25.554 C 76.760 23.140,78.303 21.755,80.955 22.290 C 83.192 22.742,83.612 22.386,84.189 19.547 C 84.377 18.624,84.705 17.601,84.946 17.189 L 85.370 16.461 84.942 15.355 C 84.351 13.829,84.285 13.352,84.499 12.172 C 85.276 7.886,80.002 4.075,74.902 5.237 M60.250 21.780 C 59.975 21.816,58.850 22.059,57.750 22.322 C 56.423 22.639,54.881 22.861,53.167 22.982 C 46.212 23.473,41.014 25.278,39.925 27.581 C 39.325 28.850,38.576 31.829,38.248 34.250 C 38.099 35.350,37.866 36.775,37.730 37.417 C 37.554 38.246,37.514 39.041,37.590 40.167 C 37.666 41.292,37.613 42.328,37.407 43.750 C 36.799 47.950,37.027 50.550,38.059 51.179 C 39.202 51.876,43.332 51.466,44.119 50.578 C 45.459 49.067,45.256 47.009,43.585 45.149 C 42.177 43.583,42.238 39.994,43.762 34.649 C 44.867 30.771,44.760 30.833,50.917 30.503 C 52.567 30.415,54.892 30.198,56.083 30.021 C 60.977 29.295,61.554 29.852,61.639 35.385 C 61.762 43.400,60.696 46.596,56.594 50.500 C 50.463 56.336,50.004 56.919,49.187 59.923 C 48.914 60.928,48.610 61.961,48.512 62.219 C 48.414 62.477,48.333 63.091,48.333 63.583 C 48.333 64.892,48.185 65.147,46.230 67.209 C 43.861 69.708,41.723 72.283,40.966 73.550 C 40.419 74.464,38.239 77.711,36.958 79.518 C 36.077 80.761,32.553 82.471,28.776 83.489 C 26.410 84.126,25.743 84.612,21.633 88.695 C 13.822 96.453,14.134 96.265,8.833 96.409 C 4.425 96.529,3.974 96.634,3.459 97.667 C 2.206 100.174,5.258 113.232,7.657 115.632 C 8.493 116.468,10.119 116.482,11.463 115.665 C 12.089 115.284,12.059 115.475,12.010 112.167 C 11.948 108.084,12.532 106.035,14.140 104.689 C 14.965 103.998,15.000 103.935,15.000 103.135 C 15.000 101.528,15.571 100.852,18.142 99.417 C 18.963 98.958,20.716 97.766,22.038 96.767 C 26.589 93.327,30.113 91.395,36.653 88.752 C 43.606 85.942,46.525 84.092,50.094 80.233 C 53.520 76.529,55.040 75.100,56.833 73.895 C 59.339 72.211,58.777 72.184,63.704 74.220 C 67.771 75.901,71.632 76.653,78.839 77.167 C 82.083 77.398,82.506 77.648,81.400 78.679 C 81.162 78.902,80.498 79.683,79.924 80.417 C 79.350 81.150,77.876 82.725,76.648 83.917 C 75.421 85.109,74.060 86.572,73.624 87.167 C 70.851 90.953,69.322 92.424,67.550 93.007 C 65.052 93.830,61.844 95.706,61.268 96.681 C 60.578 97.849,61.625 100.098,64.295 103.188 C 64.820 103.795,65.950 105.503,66.806 106.983 C 69.753 112.077,71.047 113.045,73.430 111.936 C 75.338 111.047,75.459 110.111,74.024 107.317 C 72.607 104.557,72.438 103.951,72.571 102.107 C 72.632 101.269,72.734 99.717,72.799 98.658 C 72.960 96.025,73.509 95.340,80.333 89.255 C 89.218 81.333,91.729 78.286,91.729 75.428 C 91.729 72.455,89.076 70.615,82.334 68.914 C 79.843 68.286,79.705 68.093,81.256 67.407 C 82.812 66.719,82.627 66.457,79.961 65.575 C 69.069 61.972,66.083 59.141,69.069 55.250 C 70.736 53.077,70.436 52.072,68.003 51.680 C 65.112 51.215,65.819 49.725,70.833 45.718 C 76.647 41.072,76.921 39.188,72.585 33.665 C 70.746 31.323,70.656 31.299,69.755 32.917 C 68.885 34.479,67.118 36.000,66.173 36.000 C 65.668 36.000,65.749 35.773,66.658 34.645 C 69.003 31.735,69.348 28.272,67.649 24.712 C 66.294 21.873,64.643 21.219,60.250 21.780 M99.245 26.458 C 98.098 27.150,97.874 27.366,97.473 28.167 C 96.730 29.652,96.825 30.106,98.196 31.621 C 99.065 32.582,99.060 32.600,97.115 35.511 C 96.169 36.926,95.039 38.661,94.602 39.368 C 93.232 41.584,92.965 41.407,89.666 36.083 C 86.109 30.345,81.094 25.544,80.440 27.250 C 80.330 27.536,80.298 27.420,81.057 29.500 C 81.899 31.806,82.624 34.653,83.167 37.778 C 84.081 43.047,89.755 50.159,93.050 50.165 C 95.468 50.170,99.645 44.233,102.554 36.659 C 103.066 35.326,103.857 33.321,104.312 32.203 C 105.599 29.043,105.545 28.431,103.863 27.026 C 101.874 25.366,101.194 25.283,99.245 26.458 M138.534 48.175 C 137.980 48.397,137.787 48.996,136.925 53.167 C 136.498 55.229,135.699 59.092,135.148 61.750 C 133.461 69.889,133.556 69.294,133.889 69.627 C 134.320 70.058,149.497 70.074,149.927 69.644 C 150.395 69.176,150.726 67.199,150.416 66.725 C 150.114 66.265,150.313 66.282,144.826 66.263 C 139.536 66.245,139.621 66.306,140.340 63.011 C 140.916 60.370,140.585 60.500,146.764 60.500 C 152.690 60.500,152.492 60.580,152.777 58.078 C 152.920 56.819,153.069 56.855,147.551 56.799 C 141.517 56.738,141.405 56.668,142.245 53.512 C 142.685 51.858,142.430 51.929,148.249 51.833 C 154.063 51.738,153.706 51.840,154.099 50.153 C 154.396 48.880,154.304 48.377,153.734 48.161 C 153.190 47.954,139.052 47.967,138.534 48.175 M160.078 48.155 C 159.332 48.465,159.592 47.438,156.994 60.322 C 154.869 70.864,154.794 70.000,157.833 70.000 C 160.271 70.000,160.553 69.762,160.986 67.333 C 161.076 66.829,161.531 64.579,161.998 62.333 C 163.440 55.385,163.413 55.602,163.011 54.414 C 162.250 52.158,162.233 52.167,167.322 52.167 C 172.404 52.167,172.344 52.129,171.743 54.917 C 170.830 59.147,169.001 68.508,169.001 68.949 C 169.000 69.794,169.459 70.000,171.346 70.000 C 174.343 70.000,173.861 70.912,175.748 61.667 C 176.169 59.604,176.654 57.279,176.825 56.500 C 177.332 54.193,177.560 52.597,177.448 52.150 C 177.332 51.685,175.466 49.153,174.758 48.500 L 174.307 48.083 167.362 48.049 C 163.542 48.030,160.264 48.077,160.078 48.155 M187.061 48.181 C 186.477 48.351,183.448 50.926,182.888 51.730 C 182.561 52.200,181.765 55.548,181.105 59.228 C 180.817 60.839,180.800 60.833,185.987 60.833 C 191.440 60.833,191.335 60.765,190.579 63.852 C 190.076 65.902,190.256 65.833,185.383 65.834 C 179.804 65.836,179.878 65.809,179.420 67.984 C 178.985 70.053,178.830 70.001,185.469 69.996 C 191.758 69.992,191.314 70.113,193.773 67.725 C 195.714 65.840,195.475 66.425,196.677 60.591 C 197.564 56.283,197.949 56.667,192.741 56.667 C 187.181 56.667,186.982 56.567,187.569 54.074 C 188.018 52.172,187.748 52.264,193.178 52.167 C 198.488 52.071,198.224 52.149,198.598 50.560 C 198.966 48.995,198.915 48.356,198.406 48.163 C 197.866 47.957,187.777 47.974,187.061 48.181 M203.808 48.188 C 203.319 48.367,203.080 48.836,202.842 50.083 C 202.618 51.250,200.636 60.912,199.798 64.917 C 198.955 68.943,198.922 69.488,199.500 69.783 C 200.043 70.060,214.008 70.096,214.793 69.823 C 215.341 69.631,215.550 69.254,215.834 67.939 C 216.195 66.275,216.302 66.309,210.681 66.272 C 204.846 66.234,204.962 66.305,205.573 63.110 C 206.086 60.428,205.905 60.500,212.102 60.500 L 217.015 60.500 217.405 60.111 C 217.625 59.890,217.875 59.345,217.980 58.852 C 218.425 56.777,218.563 56.833,213.053 56.833 C 206.986 56.833,206.938 56.811,207.423 54.190 C 207.870 51.770,207.705 51.833,213.586 51.833 C 219.291 51.833,219.267 51.843,219.457 49.566 C 219.595 47.911,220.038 47.998,211.505 48.013 C 207.264 48.021,204.067 48.094,203.808 48.188 M225.375 48.168 C 224.801 48.404,224.555 49.133,223.823 52.750 C 223.452 54.583,222.591 58.821,221.909 62.167 C 220.221 70.447,220.155 70.000,223.069 70.000 C 225.839 70.000,225.683 70.199,226.666 65.417 C 227.042 63.583,227.647 60.667,228.009 58.936 C 228.761 55.337,228.763 55.312,228.357 54.417 C 227.360 52.215,227.451 52.167,232.583 52.167 C 238.213 52.167,237.819 51.330,236.095 59.625 C 235.414 62.902,234.685 66.435,234.475 67.477 L 234.092 69.370 234.497 69.698 C 235.128 70.209,238.722 70.092,239.162 69.547 C 239.525 69.099,239.617 68.712,241.411 60.068 C 243.204 51.432,243.253 51.998,240.460 48.917 L 239.704 48.083 232.727 48.049 C 228.738 48.029,225.589 48.080,225.375 48.168 M253.000 48.223 C 252.183 48.516,247.905 52.093,247.608 52.732 C 247.476 53.017,246.635 56.873,245.740 61.301 C 243.806 70.872,243.694 69.917,246.751 69.917 C 249.360 69.917,249.344 69.929,249.897 67.421 C 250.485 64.754,250.347 64.833,254.426 64.833 C 258.664 64.833,258.630 64.806,258.074 67.773 C 257.675 69.907,257.903 70.084,260.901 69.975 C 263.051 69.896,262.989 69.977,263.751 66.250 C 264.542 62.378,266.361 53.504,266.906 50.861 C 267.342 48.747,267.316 48.324,266.741 48.103 C 266.194 47.893,253.615 48.003,253.000 48.223 M272.717 48.251 C 272.274 48.560,272.119 49.033,271.596 51.667 C 271.368 52.813,270.687 56.150,270.083 59.083 C 267.947 69.456,267.997 69.184,268.172 69.510 C 268.427 69.987,268.988 70.022,275.500 69.968 C 281.071 69.921,281.632 69.890,282.156 69.605 C 283.261 69.003,287.191 66.101,287.512 65.650 C 287.839 65.191,290.167 54.363,290.167 53.303 C 290.167 52.342,287.628 48.608,286.714 48.225 C 285.880 47.875,273.219 47.898,272.717 48.251 M300.281 48.241 C 299.931 48.366,299.518 48.575,299.364 48.706 C 299.210 48.837,298.166 49.709,297.045 50.645 C 294.536 52.738,295.064 51.152,292.241 65.068 C 291.186 70.266,291.091 70.000,294.000 70.000 C 296.539 70.000,296.768 69.813,297.175 67.404 C 297.606 64.862,297.701 64.810,301.901 64.871 C 305.845 64.928,305.816 64.909,305.417 67.167 C 304.928 69.936,304.977 70.000,307.569 70.000 C 310.317 70.000,310.252 70.074,311.091 66.000 C 314.731 48.330,314.693 48.564,314.000 48.215 C 313.377 47.901,301.169 47.925,300.281 48.241 M329.042 48.172 C 328.486 48.395,328.237 49.110,327.595 52.333 C 327.275 53.938,326.670 56.900,326.251 58.917 C 325.831 60.933,325.300 63.483,325.071 64.583 C 324.843 65.683,324.533 67.214,324.384 67.985 L 324.114 69.387 324.508 69.707 C 325.096 70.183,328.655 70.087,329.161 69.581 C 329.482 69.259,329.779 68.145,330.420 64.851 C 330.813 62.834,331.292 62.416,333.066 62.540 C 334.494 62.639,334.746 62.987,335.903 66.460 C 337.108 70.075,336.913 69.902,339.879 69.971 C 344.000 70.068,343.949 70.139,342.347 66.541 C 340.565 62.542,340.525 62.809,343.241 60.572 C 345.245 58.920,345.304 58.814,345.917 55.733 C 346.531 52.645,346.616 53.028,344.715 50.304 C 343.863 49.084,343.299 48.443,342.920 48.263 C 342.289 47.963,329.764 47.882,329.042 48.172 M352.142 48.188 C 351.456 48.439,351.460 48.426,349.240 59.404 C 347.991 65.583,347.921 65.032,350.389 68.397 C 351.577 70.016,351.514 70.000,356.620 69.999 C 361.960 69.998,361.608 70.102,364.453 67.678 C 367.267 65.280,366.977 65.897,368.250 59.600 C 368.567 58.033,369.165 55.107,369.580 53.099 C 370.449 48.886,370.471 48.615,369.963 48.259 C 369.468 47.913,366.568 47.897,365.754 48.237 C 365.084 48.517,365.156 48.289,364.090 53.500 C 361.776 64.803,361.721 65.038,361.242 65.458 C 360.830 65.820,360.697 65.833,357.574 65.833 C 353.040 65.833,353.226 66.155,354.423 60.392 C 357.037 47.810,356.902 48.684,356.296 48.259 C 355.869 47.960,352.902 47.910,352.142 48.188 M375.885 48.195 C 375.684 48.295,375.472 48.497,375.413 48.646 C 375.327 48.866,371.799 66.077,371.360 68.417 C 371.099 69.813,371.391 70.000,373.833 70.000 C 376.424 70.000,376.455 69.972,377.008 67.167 C 377.179 66.296,377.702 63.746,378.168 61.500 C 379.484 55.165,379.427 55.643,379.019 54.437 C 378.248 52.155,378.226 52.167,383.322 52.167 C 388.903 52.167,388.511 51.077,386.500 61.009 C 384.523 70.772,384.429 70.071,387.704 69.971 C 390.139 69.897,390.040 70.021,390.844 66.059 C 391.194 64.331,391.935 60.714,392.490 58.021 C 393.046 55.329,393.500 52.882,393.500 52.584 C 393.500 51.989,392.000 49.717,390.909 48.659 L 390.315 48.083 383.283 48.049 C 378.513 48.026,376.132 48.073,375.885 48.195 M260.571 52.429 C 260.953 52.811,260.898 53.750,260.325 56.583 C 259.367 61.326,259.723 61.000,255.500 61.000 C 251.088 61.000,251.214 61.133,251.929 57.215 C 252.257 55.420,252.271 55.593,251.623 53.466 C 251.461 52.933,251.477 52.801,251.743 52.507 C 252.164 52.043,260.115 51.972,260.571 52.429 M284.500 52.500 C 284.957 52.957,284.952 53.001,283.908 58.083 C 283.400 60.558,282.911 62.958,282.823 63.417 C 282.351 65.863,282.406 65.833,278.398 65.833 C 273.803 65.833,274.014 66.212,275.240 60.143 C 276.095 55.911,276.139 55.282,275.667 54.040 C 274.966 52.196,275.034 52.167,280.083 52.167 C 283.944 52.167,284.185 52.185,284.500 52.500 M307.862 52.442 C 308.298 52.837,308.252 53.538,307.573 56.839 C 306.667 61.239,306.946 61.000,302.715 61.000 C 298.571 61.000,298.364 60.838,299.085 58.167 C 299.551 56.439,299.585 55.157,299.188 54.259 C 298.755 53.280,298.732 52.576,299.125 52.347 C 299.668 52.030,307.501 52.116,307.862 52.442 M340.492 52.329 C 341.348 52.787,340.535 57.613,339.509 58.162 C 339.139 58.360,332.857 58.396,332.552 58.202 C 332.196 57.976,332.047 57.269,332.129 56.194 C 332.191 55.371,332.123 54.885,331.820 53.995 C 331.188 52.138,331.122 52.167,336.120 52.167 C 338.440 52.167,340.319 52.236,340.492 52.329 M315.886 65.334 C 314.965 65.706,314.289 69.216,315.037 69.741 C 315.508 70.070,318.698 70.105,319.333 69.787 C 320.157 69.375,320.793 65.891,320.130 65.426 C 319.714 65.135,316.550 65.067,315.886 65.334 " stroke="none" fill="#99FF33" fill-rule="evenodd"/><path id="path1" d="M74.583 5.069 C 74.125 5.184,73.188 5.512,72.500 5.799 C 70.669 6.563,69.866 6.700,67.000 6.736 C 64.514 6.768,64.307 6.798,61.500 7.536 C 55.320 9.161,53.489 9.022,51.012 6.741 C 48.649 4.566,48.319 5.907,50.565 8.554 C 51.968 10.208,51.819 10.423,49.477 10.124 C 46.801 9.783,44.630 10.459,42.715 12.232 C 40.625 14.167,40.673 15.043,42.816 14.101 C 44.630 13.303,45.981 13.099,47.907 13.333 C 50.949 13.701,51.170 14.065,49.194 15.448 C 46.602 17.261,46.817 17.589,50.031 16.725 C 51.862 16.233,51.987 16.261,51.688 17.087 C 51.406 17.867,51.535 18.000,52.575 18.000 C 55.377 18.000,60.957 15.754,64.028 13.391 C 64.792 12.803,65.709 12.100,66.067 11.828 C 67.355 10.847,67.746 11.204,67.909 13.512 C 68.063 15.676,68.346 16.772,69.156 18.339 C 70.078 20.124,70.119 20.526,69.506 21.807 C 68.865 23.146,68.868 23.208,69.660 24.923 C 71.429 28.751,74.522 32.167,76.221 32.167 C 78.062 32.167,79.123 28.936,78.084 26.495 C 77.267 24.575,77.408 23.366,78.532 22.661 C 79.110 22.298,78.996 22.300,81.946 22.604 C 83.478 22.762,83.998 22.058,84.585 19.029 C 84.716 18.357,84.975 17.561,85.161 17.259 C 85.595 16.556,85.588 16.329,85.086 15.075 C 84.716 14.150,84.677 13.833,84.711 12.062 C 84.809 7.091,79.944 3.733,74.583 5.069 M79.351 5.437 C 82.941 6.502,85.031 9.237,84.499 12.172 C 84.285 13.352,84.351 13.829,84.942 15.355 L 85.370 16.461 84.946 17.189 C 84.705 17.601,84.377 18.624,84.189 19.547 C 83.612 22.386,83.192 22.742,80.955 22.290 C 78.303 21.755,76.760 23.140,77.315 25.554 C 77.800 27.661,77.453 30.612,76.651 31.206 C 75.516 32.047,72.212 28.497,70.065 24.132 L 69.434 22.847 69.802 21.798 C 70.303 20.370,70.272 20.049,69.483 18.551 C 68.615 16.904,68.167 15.165,68.164 13.432 C 68.159 10.648,67.385 10.345,65.121 12.241 C 62.127 14.749,59.289 16.237,55.583 17.242 C 52.468 18.087,51.690 17.986,52.287 16.811 C 52.876 15.651,52.600 15.583,50.360 16.333 C 47.898 17.158,47.623 16.950,49.405 15.608 C 51.486 14.042,51.284 13.508,48.479 13.164 C 46.351 12.903,44.896 13.021,43.435 13.570 C 42.807 13.807,42.190 14.000,42.063 14.000 C 41.130 14.000,43.084 11.890,44.802 11.043 L 46.072 10.417 49.075 10.417 C 52.660 10.417,52.658 10.419,51.101 8.775 C 49.117 6.681,48.794 5.016,50.718 6.804 C 53.237 9.144,55.487 9.387,61.000 7.913 C 64.525 6.971,65.645 6.795,67.417 6.905 C 69.374 7.027,70.698 6.796,72.614 5.998 C 75.073 4.974,77.195 4.798,79.351 5.437 M107.167 17.862 C 106.021 18.317,104.296 18.972,103.333 19.319 C 102.371 19.665,100.721 20.291,99.667 20.710 C 97.290 21.654,92.736 23.314,90.083 24.205 C 88.983 24.574,87.746 25.046,87.333 25.253 C 86.921 25.460,85.732 25.949,84.692 26.339 L 82.801 27.047 81.512 26.753 C 79.209 26.227,79.111 26.493,80.352 29.917 C 81.283 32.487,81.306 32.563,81.809 34.833 C 82.860 39.571,83.050 41.435,82.558 42.171 C 82.076 42.891,81.437 43.525,80.750 43.963 C 78.240 45.562,76.212 47.915,74.613 51.082 C 74.242 51.816,73.728 52.730,73.469 53.114 C 73.211 53.497,72.673 54.509,72.273 55.364 C 71.873 56.218,71.311 57.208,71.023 57.565 C 70.473 58.245,70.355 58.924,70.708 59.360 C 71.258 60.039,74.323 61.778,76.360 62.568 C 79.525 63.796,80.906 64.500,80.147 64.500 C 79.805 64.500,76.840 63.544,76.602 63.357 C 76.500 63.277,76.004 63.077,75.500 62.914 C 72.690 62.006,69.772 60.270,68.981 59.035 C 68.302 57.976,68.402 57.478,69.635 55.776 C 71.274 53.514,71.400 53.135,70.829 52.199 C 70.417 51.522,69.349 51.010,68.333 51.001 C 66.235 50.984,67.141 49.630,71.567 46.167 C 75.585 43.023,76.840 40.582,75.992 37.556 C 75.770 36.762,73.495 33.169,72.851 32.594 C 72.652 32.417,72.330 32.004,72.134 31.678 C 71.313 30.302,70.538 29.962,69.833 30.667 C 69.500 31.000,69.500 31.000,69.500 29.598 C 69.500 25.860,67.880 22.618,65.572 21.737 C 64.335 21.264,59.960 21.485,57.500 22.144 C 56.269 22.474,55.166 22.661,54.417 22.667 C 49.136 22.712,42.113 24.644,40.421 26.517 C 39.428 27.617,38.815 29.589,37.997 34.321 C 37.664 36.248,37.373 37.429,37.094 37.980 L 36.682 38.792 37.008 39.431 C 37.458 40.316,37.460 42.622,37.011 43.612 C 36.667 44.369,36.527 44.472,35.165 44.971 C 34.662 45.156,33.350 45.658,32.250 46.087 C 31.150 46.517,29.537 47.117,28.667 47.421 C 27.796 47.725,25.583 48.550,23.750 49.253 C 21.917 49.957,19.704 50.781,18.833 51.084 C 16.321 51.960,15.041 52.604,14.773 53.125 C 14.495 53.663,13.594 56.677,13.141 58.583 C 12.966 59.317,12.682 60.292,12.509 60.750 C 12.078 61.893,11.177 64.836,10.162 68.417 C 9.299 71.463,8.357 74.654,7.489 77.477 C 6.970 79.161,7.020 79.667,7.702 79.667 C 8.207 79.667,18.866 77.486,23.167 76.502 C 24.313 76.240,25.962 75.902,26.833 75.751 C 27.704 75.599,29.692 75.190,31.250 74.840 C 32.808 74.491,34.458 74.154,34.917 74.093 C 35.375 74.031,36.294 73.831,36.958 73.648 C 37.666 73.454,38.529 73.337,39.042 73.366 L 39.917 73.417 39.902 74.134 C 39.887 74.852,37.858 78.161,36.417 79.817 C 35.589 80.768,32.391 81.977,28.858 82.676 C 27.974 82.851,26.882 83.108,26.433 83.247 C 25.984 83.386,24.521 83.693,23.183 83.929 C 21.845 84.166,19.775 84.572,18.583 84.833 C 17.392 85.094,15.757 85.391,14.951 85.494 C 13.545 85.673,11.130 86.178,8.833 86.771 C 8.237 86.925,7.459 87.120,7.104 87.204 C 6.089 87.445,6.601 87.684,7.755 87.509 C 8.302 87.425,10.175 87.272,11.917 87.167 C 13.658 87.063,16.096 86.834,17.333 86.658 C 23.936 85.722,24.124 85.954,20.020 89.974 C 13.575 96.287,13.979 96.061,8.917 96.168 C 3.273 96.287,2.949 96.489,2.949 99.892 C 2.949 103.425,4.887 111.282,6.510 114.327 C 7.575 116.326,8.628 116.826,10.576 116.259 C 12.295 115.760,12.365 115.608,12.243 112.626 C 12.076 108.515,12.732 106.029,14.278 104.917 C 15.074 104.344,15.400 103.740,15.245 103.124 C 14.956 101.972,16.050 100.752,18.500 99.492 C 19.188 99.139,20.800 98.101,22.083 97.187 C 26.874 93.773,31.308 91.379,36.000 89.672 C 39.903 88.252,42.603 86.941,45.184 85.212 C 48.936 82.698,49.646 82.145,50.535 81.046 C 53.253 77.681,58.452 72.933,59.419 72.933 C 60.866 72.933,64.622 75.035,64.163 75.587 C 63.659 76.196,58.627 77.126,57.000 76.912 C 55.786 76.753,54.894 77.429,51.859 80.812 C 49.982 82.905,50.090 82.943,55.949 82.266 C 57.856 82.046,60.077 81.817,60.885 81.757 C 61.692 81.697,62.930 81.546,63.635 81.422 C 64.340 81.298,65.555 81.147,66.334 81.086 C 68.290 80.934,75.032 80.193,76.250 79.997 C 77.847 79.740,78.992 79.784,79.116 80.109 C 79.447 80.972,76.750 83.850,74.689 84.831 C 73.478 85.409,73.470 85.416,73.561 85.978 C 73.678 86.699,73.436 87.162,72.126 88.719 C 71.553 89.401,70.794 90.311,70.440 90.742 C 69.559 91.813,68.680 92.414,67.363 92.845 C 63.796 94.013,60.833 96.139,60.833 97.532 C 60.833 98.515,61.826 100.533,62.991 101.917 C 64.640 103.876,65.341 104.887,66.691 107.253 C 69.545 112.252,71.130 113.340,73.670 112.042 C 75.630 111.039,75.707 110.184,74.122 106.973 C 72.553 103.794,72.413 103.053,72.924 100.636 C 73.093 99.836,73.145 99.070,73.075 98.408 C 72.873 96.502,74.046 95.107,80.333 89.776 C 89.760 81.782,91.908 79.359,92.526 76.018 C 93.153 72.638,90.538 70.361,83.917 68.520 C 83.067 68.284,82.659 68.011,82.970 67.886 C 84.106 67.429,84.151 66.662,83.099 65.679 C 82.518 65.137,82.541 65.068,83.458 64.609 C 85.173 63.751,88.506 62.883,92.833 62.168 C 93.979 61.978,95.133 61.751,95.397 61.663 C 95.662 61.574,97.687 61.162,99.897 60.746 C 102.108 60.331,104.442 59.845,105.083 59.666 C 105.725 59.487,106.832 59.260,107.542 59.161 C 110.510 58.750,110.635 58.597,110.761 55.250 C 110.886 51.933,110.828 51.748,109.654 51.756 C 108.689 51.762,105.130 52.325,100.250 53.244 C 98.600 53.555,96.590 53.893,95.783 53.995 C 94.977 54.098,94.136 54.250,93.915 54.334 C 93.292 54.571,89.740 55.026,88.341 55.048 C 85.590 55.091,85.853 54.085,88.833 53.164 C 89.429 52.980,90.629 52.578,91.500 52.270 C 93.768 51.468,95.107 51.038,96.250 50.746 C 97.292 50.479,100.102 49.643,104.083 48.414 C 105.367 48.017,107.189 47.456,108.132 47.166 C 109.075 46.876,110.050 46.464,110.299 46.250 L 110.750 45.862 110.705 31.652 C 110.672 21.627,110.605 17.377,110.476 17.221 C 110.163 16.843,109.327 17.005,107.167 17.862 M65.083 21.853 C 66.930 22.363,68.673 25.908,68.663 29.133 C 68.656 31.347,68.113 32.840,66.658 34.645 C 65.749 35.773,65.668 36.000,66.173 36.000 C 67.118 36.000,68.885 34.479,69.755 32.917 C 70.656 31.299,70.746 31.323,72.585 33.665 C 76.921 39.188,76.647 41.072,70.833 45.718 C 65.819 49.725,65.112 51.215,68.003 51.680 C 70.436 52.072,70.736 53.077,69.069 55.250 C 66.083 59.141,69.069 61.972,79.961 65.575 C 82.627 66.457,82.812 66.719,81.256 67.407 C 79.705 68.093,79.843 68.286,82.334 68.914 C 89.076 70.615,91.729 72.455,91.729 75.428 C 91.729 78.286,89.218 81.333,80.333 89.255 C 73.509 95.340,72.960 96.025,72.799 98.658 C 72.734 99.717,72.632 101.269,72.571 102.107 C 72.438 103.951,72.607 104.557,74.024 107.317 C 75.459 110.111,75.338 111.047,73.430 111.936 C 71.047 113.045,69.753 112.077,66.806 106.983 C 65.950 105.503,64.820 103.795,64.295 103.188 C 61.625 100.098,60.578 97.849,61.268 96.681 C 61.844 95.706,65.052 93.830,67.550 93.007 C 69.322 92.424,70.851 90.953,73.624 87.167 C 74.060 86.572,75.421 85.109,76.648 83.917 C 77.876 82.725,79.350 81.150,79.924 80.417 C 80.498 79.683,81.162 78.902,81.400 78.679 C 82.506 77.648,82.083 77.398,78.839 77.167 C 71.632 76.653,67.771 75.901,63.704 74.220 C 58.777 72.184,59.339 72.211,56.833 73.895 C 55.040 75.100,53.520 76.529,50.094 80.233 C 46.525 84.092,43.606 85.942,36.653 88.752 C 30.113 91.395,26.589 93.327,22.038 96.767 C 20.716 97.766,18.963 98.958,18.142 99.417 C 15.571 100.852,15.000 101.528,15.000 103.135 C 15.000 103.935,14.965 103.998,14.140 104.689 C 12.532 106.035,11.948 108.084,12.010 112.167 C 12.059 115.475,12.089 115.284,11.463 115.665 C 10.119 116.482,8.493 116.468,7.657 115.632 C 5.258 113.232,2.206 100.174,3.459 97.667 C 3.974 96.634,4.425 96.529,8.833 96.409 C 14.134 96.265,13.822 96.453,21.633 88.695 C 25.743 84.612,26.410 84.126,28.776 83.489 C 32.553 82.471,36.077 80.761,36.958 79.518 C 38.239 77.711,40.419 74.464,40.966 73.550 C 41.723 72.283,43.861 69.708,46.230 67.209 C 48.185 65.147,48.333 64.892,48.333 63.583 C 48.333 63.091,48.414 62.477,48.512 62.219 C 48.610 61.961,48.914 60.928,49.187 59.923 C 50.004 56.919,50.463 56.336,56.594 50.500 C 60.696 46.596,61.762 43.400,61.639 35.385 C 61.554 29.852,60.977 29.295,56.083 30.021 C 54.892 30.198,52.567 30.415,50.917 30.503 C 44.760 30.833,44.867 30.771,43.762 34.649 C 42.238 39.994,42.177 43.583,43.585 45.149 C 45.256 47.009,45.459 49.067,44.119 50.578 C 43.332 51.466,39.202 51.876,38.059 51.179 C 37.027 50.550,36.799 47.950,37.407 43.750 C 37.613 42.328,37.666 41.292,37.590 40.167 C 37.514 39.041,37.554 38.246,37.730 37.417 C 37.866 36.775,38.099 35.350,38.248 34.250 C 38.576 31.829,39.325 28.850,39.925 27.581 C 41.014 25.278,46.212 23.473,53.167 22.982 C 54.881 22.861,56.423 22.639,57.750 22.322 C 60.577 21.647,63.630 21.451,65.083 21.853 M102.500 26.022 C 105.465 27.822,105.729 28.722,104.312 32.203 C 103.857 33.321,103.066 35.326,102.554 36.659 C 99.645 44.233,95.468 50.170,93.050 50.165 C 89.755 50.159,84.081 43.047,83.167 37.778 C 82.624 34.653,81.899 31.806,81.057 29.500 C 80.298 27.420,80.330 27.536,80.440 27.250 C 81.094 25.544,86.109 30.345,89.666 36.083 C 92.965 41.407,93.232 41.584,94.602 39.368 C 95.039 38.661,96.169 36.926,97.115 35.511 C 99.060 32.600,99.065 32.582,98.196 31.621 C 97.845 31.234,97.433 30.731,97.279 30.505 C 95.848 28.392,100.220 24.638,102.500 26.022 M60.234 30.391 C 61.433 31.176,61.900 33.838,61.036 34.961 C 60.744 35.340,59.919 35.693,55.917 37.156 C 54.725 37.591,52.625 38.379,51.250 38.906 C 41.799 42.532,41.979 42.606,43.682 35.791 C 44.867 31.053,44.859 31.058,50.000 30.806 C 51.879 30.713,54.279 30.498,55.333 30.327 C 57.611 29.957,59.612 29.983,60.234 30.391 M59.715 45.014 C 60.137 45.688,59.296 47.322,57.466 49.386 C 56.115 50.910,54.166 51.907,51.678 52.346 C 50.690 52.520,48.764 52.931,47.399 53.258 C 44.944 53.847,39.508 55.007,37.250 55.423 C 36.608 55.542,35.221 55.839,34.167 56.083 C 33.112 56.328,31.875 56.593,31.417 56.674 C 30.958 56.754,28.858 57.198,26.750 57.662 C 24.642 58.125,22.242 58.610,21.417 58.739 C 20.592 58.869,19.209 59.099,18.344 59.251 C 16.819 59.520,15.333 59.480,15.333 59.170 C 15.333 58.768,17.857 57.585,20.500 56.748 C 22.653 56.065,25.167 55.243,26.167 54.895 C 26.579 54.751,27.554 54.447,28.333 54.220 C 29.113 53.992,31.349 53.286,33.303 52.650 L 36.856 51.494 38.236 51.693 C 41.310 52.138,43.824 51.486,44.848 49.979 C 45.759 48.637,45.402 48.788,53.833 46.174 C 55.254 45.733,56.904 45.219,57.500 45.031 C 58.741 44.640,59.477 44.634,59.715 45.014 M138.292 48.013 C 137.767 48.319,137.553 49.027,136.611 53.583 C 136.099 56.058,135.220 60.296,134.658 63.000 C 133.370 69.199,133.331 69.530,133.850 69.893 C 134.367 70.255,149.125 70.309,149.833 69.951 C 150.352 69.689,150.682 68.750,150.721 67.426 C 150.763 65.986,150.837 66.005,145.451 66.002 L 140.985 66.000 140.576 65.591 C 140.084 65.099,140.089 65.250,140.504 63.227 C 140.760 61.983,140.943 61.482,141.258 61.167 L 141.674 60.750 146.934 60.667 C 152.931 60.572,152.496 60.693,152.850 59.020 C 153.381 56.510,153.575 56.602,147.564 56.500 C 141.572 56.399,141.816 56.525,142.426 53.842 C 142.844 52.003,142.540 52.097,148.428 52.000 C 154.168 51.905,153.857 51.986,154.256 50.486 C 154.587 49.242,154.567 48.445,154.195 48.109 C 153.832 47.780,138.847 47.690,138.292 48.013 M159.598 48.203 C 159.113 48.630,159.204 48.235,156.490 61.667 C 155.666 65.746,155.033 69.255,155.084 69.464 C 155.218 70.019,155.800 70.167,157.852 70.167 C 160.778 70.167,160.587 70.393,161.516 65.836 C 163.767 54.807,163.665 55.531,163.170 54.093 C 162.572 52.356,162.628 52.333,167.404 52.333 C 172.540 52.333,172.249 51.365,170.167 61.527 C 168.225 71.000,168.103 70.167,171.429 70.167 C 174.146 70.167,174.262 70.075,174.790 67.500 C 177.229 55.602,177.709 53.160,177.710 52.619 C 177.712 51.911,176.699 50.284,175.310 48.763 L 174.536 47.917 167.283 47.870 L 160.030 47.823 159.598 48.203 M186.324 48.309 C 185.282 48.979,182.669 51.473,182.471 51.988 C 182.165 52.783,180.699 60.005,180.781 60.317 C 180.938 60.918,181.542 61.000,185.804 61.000 C 191.140 61.000,191.081 60.963,190.337 63.833 C 189.842 65.746,190.073 65.667,184.992 65.667 C 179.459 65.667,179.601 65.602,179.130 68.345 C 178.804 70.249,178.525 70.167,185.274 70.167 C 191.830 70.167,191.313 70.290,193.656 68.160 C 195.888 66.131,195.571 66.914,197.094 59.667 C 197.824 56.194,198.147 56.431,192.601 56.364 C 187.431 56.302,187.572 56.350,187.724 54.713 C 187.820 53.674,188.148 52.806,188.540 52.552 C 188.656 52.478,190.829 52.379,193.369 52.333 C 198.737 52.236,198.379 52.363,198.851 50.392 C 199.499 47.684,199.852 47.833,192.783 47.833 L 187.065 47.833 186.324 48.309 M203.561 48.028 C 203.053 48.274,202.907 48.686,202.346 51.453 C 202.071 52.808,201.545 55.379,201.176 57.167 C 200.808 58.954,200.130 62.254,199.671 64.500 C 199.212 66.746,198.796 68.754,198.747 68.962 C 198.686 69.223,198.786 69.468,199.072 69.754 L 199.485 70.167 207.172 70.167 L 214.859 70.167 215.325 69.701 C 216.108 68.917,216.411 66.911,215.833 66.333 C 215.516 66.016,215.278 66.000,211.008 66.000 C 205.141 66.000,205.212 66.035,205.736 63.369 C 206.275 60.623,206.162 60.669,212.386 60.668 C 217.972 60.666,217.979 60.664,218.261 58.535 C 218.527 56.532,218.437 56.500,212.642 56.500 C 207.067 56.500,207.090 56.513,207.735 53.772 C 208.146 52.026,207.913 52.096,213.629 51.998 C 216.354 51.951,218.709 51.852,218.862 51.777 C 219.596 51.419,220.082 48.749,219.517 48.184 C 219.119 47.786,204.359 47.642,203.561 48.028 M225.031 48.096 C 224.489 48.477,224.443 48.637,223.343 54.058 C 222.800 56.730,221.901 61.145,221.345 63.868 C 219.971 70.596,219.857 70.167,223.011 70.167 C 226.235 70.167,225.771 70.990,227.584 62.059 C 229.014 55.016,228.950 55.593,228.466 54.106 L 228.094 52.962 228.482 52.648 C 229.020 52.212,236.018 52.165,236.630 52.593 C 237.255 53.031,237.298 52.740,234.838 64.640 C 233.640 70.441,233.545 70.167,236.750 70.167 C 239.709 70.167,239.499 70.429,240.511 65.461 C 240.890 63.603,241.340 61.408,241.512 60.583 C 243.411 51.473,243.388 52.375,241.776 50.220 C 239.848 47.642,240.948 47.924,232.608 47.871 C 226.188 47.830,225.375 47.854,225.031 48.096 M252.583 48.167 C 251.696 48.612,247.844 51.947,247.466 52.598 C 247.178 53.095,244.000 68.344,244.000 69.230 C 244.000 69.993,244.519 70.167,246.800 70.167 C 249.434 70.167,249.618 70.030,250.070 67.751 C 250.611 65.017,250.638 65.000,254.333 65.000 C 258.128 65.000,258.312 65.125,257.906 67.431 C 257.437 70.092,257.506 70.167,260.444 70.167 C 263.529 70.167,262.924 71.649,265.919 56.750 C 266.232 55.192,266.715 52.829,266.993 51.500 C 267.585 48.664,267.596 48.472,267.195 48.109 C 266.681 47.644,253.525 47.696,252.583 48.167 M272.560 48.077 C 272.083 48.411,271.905 48.922,271.427 51.333 C 271.200 52.479,270.522 55.817,269.920 58.750 C 267.475 70.666,267.683 69.350,268.167 69.833 C 268.489 70.155,268.722 70.167,274.972 70.167 C 282.537 70.167,281.528 70.402,285.212 67.779 C 287.835 65.911,287.917 65.814,288.268 64.148 C 290.549 53.339,290.594 52.978,289.813 51.741 C 288.673 49.937,287.334 48.221,286.921 48.032 C 286.217 47.712,273.023 47.753,272.560 48.077 M299.947 48.080 C 299.393 48.369,296.188 50.981,295.302 51.866 C 294.588 52.579,294.528 52.767,293.654 57.083 C 293.301 58.825,292.599 62.257,292.094 64.709 C 290.910 70.459,290.812 70.167,293.919 70.167 C 296.689 70.167,296.917 70.010,297.318 67.833 C 297.840 65.004,297.846 65.000,301.652 65.000 C 305.603 65.000,305.691 65.072,305.083 67.833 C 304.603 70.019,304.755 70.167,307.492 70.167 C 310.571 70.167,310.409 70.349,311.342 65.833 C 314.934 48.450,314.920 48.530,314.296 48.093 C 313.757 47.715,300.669 47.704,299.947 48.080 M328.625 48.164 C 328.126 48.556,328.232 48.163,326.984 54.230 C 326.014 58.945,324.980 63.962,324.322 67.141 C 323.706 70.120,323.794 70.221,326.904 70.139 C 329.642 70.066,329.523 70.189,330.265 66.668 C 330.968 63.332,331.050 63.148,331.965 62.857 C 333.843 62.262,334.408 62.817,335.673 66.500 C 337.004 70.373,336.745 70.167,340.270 70.167 C 344.195 70.167,344.205 70.155,342.765 66.934 C 340.816 62.571,340.785 62.880,343.389 60.713 C 345.598 58.874,345.533 58.994,346.178 55.607 C 346.735 52.686,346.234 51.297,343.661 48.629 L 342.895 47.833 335.970 47.833 C 329.316 47.833,329.029 47.846,328.625 48.164 M351.716 48.084 C 351.285 48.386,351.015 49.521,348.912 59.901 C 347.754 65.611,347.678 65.103,350.210 68.548 C 351.438 70.220,351.225 70.167,356.664 70.167 C 362.242 70.167,361.675 70.336,364.693 67.774 C 367.407 65.470,367.185 65.928,368.340 60.250 C 368.806 57.958,369.519 54.454,369.924 52.463 C 370.685 48.728,370.704 48.178,370.082 47.939 C 369.630 47.766,365.838 47.819,365.493 48.004 C 364.898 48.322,364.854 48.503,362.240 61.417 C 361.340 65.865,361.565 65.667,357.414 65.667 C 354.553 65.667,353.833 65.468,353.833 64.676 C 353.833 64.476,355.249 57.399,356.002 53.833 C 356.504 51.458,356.999 48.871,357.000 48.625 C 357.001 47.848,352.684 47.406,351.716 48.084 M375.591 48.203 C 375.116 48.615,375.409 47.321,372.006 64.017 C 370.655 70.645,370.518 70.167,373.761 70.167 C 376.915 70.167,376.484 70.901,378.167 62.656 C 379.598 55.642,379.629 55.407,379.250 54.333 C 378.570 52.407,378.718 52.333,383.285 52.333 C 388.650 52.333,388.346 50.868,385.684 63.896 C 384.308 70.628,384.182 70.167,387.407 70.167 C 390.310 70.167,390.183 70.304,391.030 66.242 C 393.832 52.802,393.873 52.549,393.392 51.617 C 393.016 50.888,391.481 48.843,390.926 48.333 L 390.473 47.917 383.252 47.870 L 376.030 47.823 375.591 48.203 M153.734 48.161 C 154.304 48.377,154.396 48.880,154.099 50.153 C 153.706 51.840,154.063 51.738,148.249 51.833 C 142.430 51.929,142.685 51.858,142.245 53.512 C 141.405 56.668,141.517 56.738,147.551 56.799 C 153.069 56.855,152.920 56.819,152.777 58.078 C 152.492 60.580,152.690 60.500,146.764 60.500 C 140.585 60.500,140.916 60.370,140.340 63.011 C 139.621 66.306,139.536 66.245,144.826 66.263 C 150.313 66.282,150.114 66.265,150.416 66.725 C 150.726 67.199,150.395 69.176,149.927 69.644 C 149.497 70.074,134.320 70.058,133.889 69.627 C 133.556 69.294,133.461 69.889,135.148 61.750 C 135.699 59.092,136.498 55.229,136.925 53.167 C 137.787 48.996,137.980 48.397,138.534 48.175 C 139.052 47.967,153.190 47.954,153.734 48.161 M174.758 48.500 C 175.466 49.153,177.332 51.685,177.448 52.150 C 177.560 52.597,177.332 54.193,176.825 56.500 C 176.654 57.279,176.169 59.604,175.748 61.667 C 173.861 70.912,174.343 70.000,171.346 70.000 C 169.459 70.000,169.000 69.794,169.001 68.949 C 169.001 68.508,170.830 59.147,171.743 54.917 C 172.344 52.129,172.404 52.167,167.322 52.167 C 162.233 52.167,162.250 52.158,163.011 54.414 C 163.413 55.602,163.440 55.385,161.998 62.333 C 161.531 64.579,161.076 66.829,160.986 67.333 C 160.553 69.762,160.271 70.000,157.833 70.000 C 155.824 70.000,155.333 69.821,155.333 69.087 C 155.333 68.653,157.677 56.738,159.005 50.421 C 159.553 47.817,158.886 48.006,167.362 48.049 L 174.307 48.083 174.758 48.500 M198.406 48.163 C 198.915 48.356,198.966 48.995,198.598 50.560 C 198.224 52.149,198.488 52.071,193.178 52.167 C 187.748 52.264,188.018 52.172,187.569 54.074 C 186.982 56.567,187.181 56.667,192.741 56.667 C 197.949 56.667,197.564 56.283,196.677 60.591 C 195.475 66.425,195.714 65.840,193.773 67.725 C 191.314 70.113,191.758 69.992,185.469 69.996 C 178.830 70.001,178.985 70.053,179.420 67.984 C 179.878 65.809,179.804 65.836,185.383 65.834 C 190.256 65.833,190.076 65.902,190.579 63.852 C 191.335 60.765,191.440 60.833,185.987 60.833 C 180.800 60.833,180.817 60.839,181.105 59.228 C 181.765 55.548,182.561 52.200,182.888 51.730 C 183.448 50.926,186.477 48.351,187.061 48.181 C 187.777 47.974,197.866 47.957,198.406 48.163 M219.150 48.274 C 219.507 48.524,219.534 48.638,219.457 49.566 C 219.267 51.843,219.291 51.833,213.586 51.833 C 207.705 51.833,207.870 51.770,207.423 54.190 C 206.938 56.811,206.986 56.833,213.053 56.833 C 218.563 56.833,218.425 56.777,217.980 58.852 C 217.875 59.345,217.625 59.890,217.405 60.111 L 217.015 60.500 212.102 60.500 C 205.905 60.500,206.086 60.428,205.573 63.110 C 204.962 66.305,204.846 66.234,210.681 66.272 C 216.302 66.309,216.195 66.275,215.834 67.939 C 215.550 69.254,215.341 69.631,214.793 69.823 C 214.008 70.096,200.043 70.060,199.500 69.783 C 198.922 69.488,198.955 68.943,199.798 64.917 C 200.636 60.912,202.618 51.250,202.842 50.083 C 203.080 48.836,203.319 48.367,203.808 48.188 C 204.659 47.876,218.695 47.955,219.150 48.274 M240.460 48.917 C 243.253 51.998,243.204 51.432,241.411 60.068 C 239.617 68.712,239.525 69.099,239.162 69.547 C 238.722 70.092,235.128 70.209,234.497 69.698 L 234.092 69.370 234.475 67.477 C 234.685 66.435,235.414 62.902,236.095 59.625 C 237.819 51.330,238.213 52.167,232.583 52.167 C 227.451 52.167,227.360 52.215,228.357 54.417 C 228.763 55.312,228.761 55.337,228.009 58.936 C 227.647 60.667,227.042 63.583,226.666 65.417 C 225.683 70.199,225.839 70.000,223.069 70.000 C 220.155 70.000,220.221 70.447,221.909 62.167 C 222.591 58.821,223.452 54.583,223.823 52.750 C 224.555 49.133,224.801 48.404,225.375 48.168 C 225.589 48.080,228.738 48.029,232.727 48.049 L 239.704 48.083 240.460 48.917 M266.741 48.103 C 267.316 48.324,267.342 48.747,266.906 50.861 C 266.361 53.504,264.542 62.378,263.751 66.250 C 262.989 69.977,263.051 69.896,260.901 69.975 C 257.903 70.084,257.675 69.907,258.074 67.773 C 258.630 64.806,258.664 64.833,254.426 64.833 C 250.347 64.833,250.485 64.754,249.897 67.421 C 249.344 69.929,249.360 69.917,246.751 69.917 C 243.694 69.917,243.806 70.872,245.740 61.301 C 246.635 56.873,247.476 53.017,247.608 52.732 C 247.905 52.093,252.183 48.516,253.000 48.223 C 253.615 48.003,266.194 47.893,266.741 48.103 M286.714 48.225 C 287.628 48.608,290.167 52.342,290.167 53.303 C 290.167 54.363,287.839 65.191,287.512 65.650 C 287.191 66.101,283.261 69.003,282.156 69.605 C 281.632 69.890,281.071 69.921,275.500 69.968 C 268.988 70.022,268.427 69.987,268.172 69.510 C 267.997 69.184,267.947 69.456,270.083 59.083 C 270.687 56.150,271.368 52.813,271.596 51.667 C 272.119 49.033,272.274 48.560,272.717 48.251 C 273.219 47.898,285.880 47.875,286.714 48.225 M314.000 48.215 C 314.693 48.564,314.731 48.330,311.091 66.000 C 310.252 70.074,310.317 70.000,307.569 70.000 C 304.977 70.000,304.928 69.936,305.417 67.167 C 305.816 64.909,305.845 64.928,301.901 64.871 C 297.701 64.810,297.606 64.862,297.175 67.404 C 296.768 69.813,296.539 70.000,294.000 70.000 C 291.091 70.000,291.186 70.266,292.241 65.068 C 295.064 51.152,294.536 52.738,297.045 50.645 C 298.166 49.709,299.210 48.837,299.364 48.706 C 300.115 48.070,300.742 48.015,307.250 48.010 C 312.016 48.006,313.686 48.057,314.000 48.215 M342.920 48.263 C 343.299 48.443,343.863 49.084,344.715 50.304 C 346.616 53.028,346.531 52.645,345.917 55.733 C 345.304 58.814,345.245 58.920,343.241 60.572 C 340.525 62.809,340.565 62.542,342.347 66.541 C 343.949 70.139,344.000 70.068,339.879 69.971 C 336.913 69.902,337.108 70.075,335.903 66.460 C 334.746 62.987,334.494 62.639,333.066 62.540 C 331.292 62.416,330.813 62.834,330.420 64.851 C 329.779 68.145,329.482 69.259,329.161 69.581 C 328.655 70.087,325.096 70.183,324.508 69.707 L 324.114 69.387 324.384 67.985 C 324.533 67.214,324.843 65.683,325.071 64.583 C 325.300 63.483,325.831 60.933,326.251 58.917 C 326.670 56.900,327.275 53.938,327.595 52.333 C 328.237 49.110,328.486 48.395,329.042 48.172 C 329.764 47.882,342.289 47.963,342.920 48.263 M356.296 48.259 C 356.814 48.622,356.784 49.028,355.924 53.167 C 355.515 55.137,354.839 58.389,354.423 60.392 C 353.226 66.155,353.040 65.833,357.574 65.833 C 360.697 65.833,360.830 65.820,361.242 65.458 C 361.721 65.038,361.776 64.803,364.090 53.500 C 365.156 48.289,365.084 48.517,365.754 48.237 C 366.568 47.897,369.468 47.913,369.963 48.259 C 370.471 48.615,370.449 48.886,369.580 53.099 C 369.165 55.107,368.567 58.033,368.250 59.600 C 366.977 65.897,367.267 65.280,364.453 67.678 C 361.608 70.102,361.960 69.998,356.620 69.999 C 351.514 70.000,351.577 70.016,350.389 68.397 C 347.921 65.032,347.991 65.583,349.240 59.404 C 351.460 48.426,351.456 48.439,352.142 48.188 C 352.902 47.910,355.869 47.960,356.296 48.259 M390.909 48.659 C 392.000 49.717,393.500 51.989,393.500 52.584 C 393.500 52.882,393.046 55.329,392.490 58.021 C 391.935 60.714,391.194 64.331,390.844 66.059 C 390.040 70.021,390.139 69.897,387.704 69.971 C 384.429 70.071,384.523 70.772,386.500 61.009 C 388.511 51.077,388.903 52.167,383.322 52.167 C 378.226 52.167,378.248 52.155,379.019 54.437 C 379.427 55.643,379.484 55.165,378.168 61.500 C 377.702 63.746,377.179 66.296,377.008 67.167 C 376.455 69.972,376.424 70.000,373.833 70.000 C 371.391 70.000,371.099 69.813,371.360 68.417 C 371.799 66.077,375.327 48.866,375.413 48.646 C 375.647 48.050,376.119 48.015,383.283 48.049 L 390.315 48.083 390.909 48.659 M251.743 52.507 C 251.477 52.801,251.461 52.933,251.623 53.466 C 252.271 55.593,252.257 55.420,251.929 57.215 C 251.214 61.133,251.088 61.000,255.500 61.000 C 259.723 61.000,259.367 61.326,260.325 56.583 C 260.898 53.750,260.953 52.811,260.571 52.429 C 260.115 51.972,252.164 52.043,251.743 52.507 M275.667 52.500 C 275.255 52.911,275.255 52.958,275.667 54.040 C 276.139 55.282,276.095 55.911,275.240 60.143 C 274.014 66.212,273.803 65.833,278.398 65.833 C 282.406 65.833,282.351 65.863,282.823 63.417 C 282.911 62.958,283.400 60.558,283.908 58.083 C 285.248 51.559,285.641 52.167,280.083 52.167 C 276.222 52.167,275.982 52.185,275.667 52.500 M299.125 52.347 C 298.732 52.576,298.755 53.280,299.188 54.259 C 299.585 55.157,299.551 56.439,299.085 58.167 C 298.364 60.838,298.571 61.000,302.715 61.000 C 306.946 61.000,306.667 61.239,307.573 56.839 C 308.252 53.538,308.298 52.837,307.862 52.442 C 307.501 52.116,299.668 52.030,299.125 52.347 M331.741 52.510 C 331.438 52.845,331.440 52.879,331.820 53.995 C 332.123 54.885,332.191 55.371,332.129 56.194 C 332.047 57.269,332.196 57.976,332.552 58.202 C 332.857 58.396,339.139 58.360,339.509 58.162 C 340.535 57.613,341.348 52.787,340.492 52.329 C 339.818 51.968,332.087 52.128,331.741 52.510 M260.296 52.593 C 260.798 52.944,260.776 53.381,260.099 56.667 C 259.198 61.038,259.517 60.733,255.766 60.804 C 251.643 60.882,251.531 60.804,252.020 58.181 C 252.389 56.203,252.407 55.084,252.083 54.167 C 251.755 53.235,251.767 52.722,252.125 52.513 C 252.642 52.212,259.853 52.283,260.296 52.593 M284.130 52.593 C 284.673 52.973,284.625 53.453,283.486 59.077 C 282.066 66.085,282.395 65.661,278.383 65.664 C 274.150 65.668,274.302 65.970,275.510 59.952 L 276.407 55.477 276.037 54.415 C 275.315 52.345,275.338 52.333,280.083 52.333 C 283.141 52.333,283.822 52.377,284.130 52.593 M307.667 52.667 C 308.102 53.102,308.100 53.134,307.405 56.509 C 306.466 61.073,306.715 60.841,302.781 60.817 C 298.841 60.792,298.686 60.690,299.230 58.458 C 299.722 56.435,299.760 55.061,299.350 54.033 C 298.692 52.381,298.737 52.363,303.542 52.346 C 307.121 52.334,307.352 52.352,307.667 52.667 M340.318 52.608 C 340.774 52.927,340.751 53.884,340.232 56.158 C 339.773 58.171,339.782 58.167,336.128 58.167 C 332.276 58.167,332.240 58.151,332.396 56.474 C 332.481 55.565,332.434 55.127,332.168 54.337 C 331.486 52.313,331.446 52.333,336.141 52.333 C 339.387 52.333,339.982 52.372,340.318 52.608 M48.738 58.429 C 49.910 59.600,48.090 62.552,46.078 62.743 C 45.439 62.803,43.904 63.034,42.667 63.255 C 41.429 63.476,39.067 63.816,37.417 64.011 C 35.767 64.206,33.929 64.465,33.333 64.588 C 30.609 65.146,26.552 65.389,26.107 65.020 C 25.613 64.609,27.156 63.607,28.833 63.249 C 29.154 63.180,29.867 62.979,30.417 62.801 C 30.967 62.624,32.842 62.111,34.583 61.661 C 36.325 61.212,38.575 60.617,39.583 60.339 C 40.592 60.062,42.317 59.613,43.417 59.342 C 44.517 59.072,45.979 58.702,46.667 58.521 C 48.220 58.111,48.412 58.103,48.738 58.429 M315.426 65.392 C 315.063 65.755,314.869 66.405,314.412 68.787 C 314.203 69.877,314.793 70.167,317.224 70.167 C 319.786 70.167,319.865 70.118,320.330 68.250 C 321.077 65.247,320.896 65.000,317.938 65.000 C 315.934 65.000,315.797 65.021,315.426 65.392 M320.130 65.426 C 320.793 65.891,320.157 69.375,319.333 69.787 C 318.698 70.105,315.508 70.070,315.037 69.741 C 314.289 69.216,314.965 65.706,315.886 65.334 C 316.550 65.067,319.714 65.135,320.130 65.426 M106.833 67.597 C 105.229 67.909,103.429 68.243,102.833 68.339 C 102.237 68.434,100.587 68.766,99.167 69.075 C 97.746 69.384,96.035 69.726,95.365 69.835 C 94.548 69.968,94.001 70.159,93.705 70.413 L 93.263 70.793 93.781 71.855 C 94.608 73.550,94.818 75.150,94.374 76.369 C 93.775 78.013,94.058 78.167,96.965 77.778 C 98.038 77.635,99.929 77.401,101.167 77.258 C 102.404 77.116,104.429 76.883,105.667 76.740 C 106.904 76.598,108.558 76.414,109.342 76.332 C 112.090 76.046,112.042 76.141,111.970 71.173 C 111.900 66.348,112.193 66.552,106.833 67.597 " stroke="none" fill="#61d7a5" fill-rule="evenodd"/></g></svg>
